<svg width="212" xmlns="http://www.w3.org/2000/svg" height="179" id="screenshot-eb2c74b9-f443-8034-8005-5eb619445185" viewBox="0 0 212 179" xmlns:xlink="http://www.w3.org/1999/xlink" fill="none" version="1.1"><g id="shape-eb2c74b9-f443-8034-8005-5eb619445185" data-testid="Logo" rx="0" ry="0"><g id="shape-eb2c74b9-f443-8034-8005-5eb637c456b5" data-testid="Exclude"><defs><radialGradient id="fill-color-gradient-render-2-0" cx="0.6208845225577945" cy="0.3840668459173846" r="0.7091452816141177" gradientTransform="matrix(-0.986813, -0.161865, 0.161865, -0.986813, 1.171414, 0.863568)"><stop offset="0" stop-color="#bdd5ff" stop-opacity="1"/><stop offset="1" stop-color="#a1a2ff" stop-opacity="1"/></radialGradient><pattern patternUnits="userSpaceOnUse" x="0" y="0" width="212" height="179" patternTransform="matrix(1.000000, 0.000000, 0.000000, 1.000000, 0.000000, 0.000000)" id="fill-0-render-2"><g><rect width="212" height="179" style="fill: url(&quot;#fill-color-gradient-render-2-0&quot;);"/></g></pattern></defs><g class="fills" id="fills-eb2c74b9-f443-8034-8005-5eb637c456b5"><path d="M101.230,1.136C101.348,1.157,101.465,1.179,101.582,1.201C102.284,1.335,102.979,1.485,103.667,1.651C104.529,1.860,105.380,2.094,106.220,2.353C133.272,10.696,149.094,45.125,149.094,91.423C149.094,130.099,137.569,162.940,109.971,174.532C102.604,177.626,94.090,179.206,84.345,178.978C84.276,178.977,84.206,178.975,84.136,178.973C84.112,178.973,84.087,178.972,84.063,178.971C77.803,178.801,72.174,177.653,66.898,176.050C64.470,175.312,62.118,174.477,59.813,173.597C58.563,173.120,57.328,172.629,56.102,172.133C51.294,170.187,46.613,168.205,42.242,165.797C40.069,164.600,37.973,163.299,35.976,161.844C35.382,161.412,34.797,160.966,34.222,160.506C30.113,157.217,26.003,153.801,22.307,150.012C20.566,148.226,18.916,146.357,17.402,144.379C16.325,142.973,15.317,141.511,14.393,139.986C12.269,136.481,10.348,132.807,8.653,128.979C7.717,126.867,6.850,124.708,6.055,122.505C4.019,116.862,2.456,110.926,1.428,104.737C1.075,102.613,0.785,100.459,0.560,98.277C0.287,95.614,0.111,92.910,0.037,90.167C0.036,90.130,0.035,90.092,0.034,90.055C0.032,90.005,0.031,89.955,0.030,89.905C-0.029,87.516,-0.021,84.927,0.245,82.200C0.449,80.102,0.806,77.923,1.401,75.691C1.448,75.514,1.497,75.334,1.547,75.151C2.171,72.872,3.007,70.172,3.932,67.345C3.940,67.321,3.948,67.297,3.956,67.273C6.585,59.248,9.925,50.221,11.165,46.906C11.367,46.365,11.514,45.976,11.592,45.768C11.635,45.655,11.658,45.595,11.658,45.595C11.658,45.595,15.076,42.175,17.811,37.387C17.844,37.331,17.877,37.274,17.909,37.217C17.942,37.160,17.975,37.103,18.009,37.046C21.355,31.323,26.779,25.344,32.170,20.972C32.508,20.698,32.851,20.420,33.200,20.140C37.817,16.427,43.404,12.169,48.581,9.344C48.860,9.191,49.134,9.044,49.404,8.901C56.401,5.190,60.205,4.556,60.205,4.556C60.205,4.556,65.007,3.203,68.909,2.535C68.971,2.524,69.032,2.514,69.094,2.504C69.106,2.502,69.118,2.500,69.131,2.498C81.415,0.449,88.464,-1.186,101.230,1.136ZM100.947,1.360C101.278,1.566,102.789,2.533,104.307,3.511C105.824,4.488,108.192,5.890,109.569,6.627C115.875,9.998,119.880,14.282,119.057,16.773C118.611,18.125,118.464,18.102,114.744,16.106C104.158,10.428,87.779,4.993,77.152,3.634C74.953,3.354,72.168,2.917,70.965,2.666C70.452,2.559,69.856,2.506,69.192,2.501C69.147,2.500,69.103,2.500,69.058,2.500C63.850,2.513,54.680,5.418,49.423,8.896C49.316,8.967,49.210,9.038,49.106,9.109L47.878,9.954L52.677,9.679C72.651,8.536,86.407,10.356,100.667,16.030C112.590,20.775,123.000,27.814,121.020,29.792C120.491,30.321,115.949,29.337,109.150,27.220C99.886,24.336,93.946,22.843,81.471,20.265C78.835,19.721,70.868,18.783,63.555,18.157C57.490,17.638,47.539,17.995,40.553,18.983C37.404,19.428,34.474,19.793,34.043,19.793C33.861,19.793,33.581,19.907,33.223,20.114C30.715,21.568,24.394,27.620,21.562,31.450C20.450,32.955,18.382,36.230,18.019,37.029C17.984,37.108,17.964,37.162,17.964,37.189C17.964,37.189,17.965,37.190,17.965,37.190C17.997,37.229,20.075,36.225,22.612,34.944C47.499,22.384,85.934,22.357,111.225,34.882C118.429,38.450,122.208,42.008,119.513,42.683C118.165,43.021,105.734,41.624,95.068,39.935C91.316,39.341,88.365,39.102,68.993,37.821C55.575,36.934,37.780,38.259,29.218,40.783C27.691,41.233,24.643,42.073,22.443,42.651C14.174,44.822,12.159,45.326,11.611,45.746C11.388,45.917,11.408,46.074,11.348,46.323C11.321,46.437,11.243,46.659,11.125,46.963C10.787,47.839,10.121,49.392,9.406,50.958C6.418,57.499,3.352,66.672,3.953,67.272C3.954,67.273,3.956,67.274,3.957,67.274C4.060,67.300,5.455,66.208,7.096,64.819C33.370,42.564,85.899,35.740,114.901,50.816C123.623,55.350,122.010,56.416,107.226,55.889C70.653,54.585,43.337,57.903,19.883,66.495C16.415,67.766,4.457,73.430,1.583,75.102C1.237,75.304,1.023,75.447,0.971,75.518C0.686,75.907,0.421,78.767,0.246,82.298C0.122,84.794,0.044,87.624,0.034,90.153C0.026,92.362,0.072,94.341,0.187,95.667L0.431,98.504L0.560,98.277L1.211,97.133C9.311,82.887,33.406,68.299,58.142,62.667C76.827,58.413,98.210,58.587,112.185,63.109C120.507,65.802,120.100,67.221,110.671,68.384C107.808,68.738,102.875,69.386,99.707,69.825C96.540,70.265,93.300,70.703,92.508,70.800C73.039,73.169,43.870,80.743,28.182,87.503C16.287,92.627,2.669,101.491,1.422,104.788C1.360,104.950,1.329,105.099,1.329,105.233C1.334,107.665,2.359,112.701,3.705,116.895C4.503,119.383,5.256,122.035,5.378,122.787L5.599,124.156L5.860,123.164C5.913,122.962,5.975,122.754,6.047,122.542C8.581,114.977,22.362,101.410,35.881,93.292C60.448,78.539,98.840,70.599,117.623,76.385C123.439,78.177,121.555,79.560,109.145,82.605C107.298,83.059,103.698,83.999,101.147,84.694C98.595,85.389,93.413,86.759,89.630,87.738C80.907,89.994,70.757,93.349,60.195,97.466C58.876,97.981,56.429,98.928,54.757,99.571C51.795,100.711,48.498,102.147,42.258,105.011C31.360,110.014,19.570,117.903,12.264,125.080C9.909,127.393,8.958,128.361,8.626,128.995C8.444,129.345,8.449,129.593,8.511,129.909C8.735,131.047,11.985,136.976,14.120,140.138C14.950,141.369,15.961,143.022,16.365,143.814L17.100,145.252L17.402,144.379L17.490,144.124C20.379,135.793,31.424,123.140,44.965,112.648C65.021,97.110,103.116,85.365,122.016,88.894C127.120,89.846,124.817,91.912,114.039,96.051C111.964,96.848,107.746,98.490,104.666,99.699C101.587,100.909,96.620,102.854,93.628,104.024C71.651,112.612,48.798,125.655,34.281,137.897C27.537,143.584,23.225,147.932,22.307,149.937C22.185,150.203,22.123,150.428,22.123,150.610C22.123,151.290,26.371,155.221,29.962,157.864C31.722,159.159,33.698,160.726,34.355,161.345C35.012,161.965,35.598,162.408,35.660,162.332C35.681,162.305,35.770,162.116,35.905,161.813C36.151,161.263,36.549,160.336,36.977,159.316C42.930,145.128,58.397,127.921,73.506,118.679C87.082,110.375,107.261,102.907,120.862,101.152C126.664,100.404,126.760,100.561,123.924,106.127C115.282,123.086,108.326,132.569,94.862,145.749C87.131,153.317,86.194,154.255,80.328,160.291C77.244,163.463,73.231,167.994,71.409,170.360C69.586,172.724,67.732,175.053,67.288,175.535C67.112,175.726,66.963,175.880,66.857,176.008C66.370,176.592,66.752,176.644,69.314,177.316C73.712,178.469,78.730,179.005,83.996,178.972C84.101,178.971,84.206,178.970,84.311,178.969C92.750,178.880,101.805,177.336,109.959,174.531C112.865,173.532,115.656,172.373,118.264,171.063C140.699,159.788,153.277,140.059,156.319,111.370C157.014,104.823,159.733,96.386,162.501,92.191C163.313,90.961,164.346,89.386,164.795,88.693C170.526,79.858,179.103,76.433,196.327,76.100L207.205,75.890C213.391,74.781,212.572,65.371,210.388,64.153C209.270,63.530,209.653,63.373,200.326,63.751C186.622,64.308,177.358,61.097,169.764,46.642C154.011,16.683,114.666,4.428,108.303,2.866C107.541,2.679,106.850,2.509,106.225,2.357C105.215,2.110,104.376,1.906,103.683,1.741C102.742,1.517,102.070,1.362,101.606,1.266C100.540,1.044,100.570,1.127,100.947,1.360ZM158.976,49.709C161.675,51.289,162.126,54.105,159.861,55.235C155.955,57.184,152.670,55.714,152.658,52.011C152.649,49.303,156.121,48.038,158.976,49.709ZM103.505,117.381C92.745,122.825,75.144,134.766,62.892,144.932C52.935,153.195,43.375,162.929,42.235,165.795C42.112,166.105,42.087,166.335,42.172,166.474C42.818,167.537,50.860,171.300,55.876,172.886C57.108,173.276,58.369,173.822,58.678,174.098C59.174,174.543,59.265,174.761,59.754,173.566C59.964,173.052,60.247,172.276,60.668,171.144C63.824,162.646,65.059,160.089,69.173,153.550C77.545,140.245,89.749,128.952,102.587,122.635C106.913,120.506,110.249,117.337,110.290,115.319C110.322,113.784,111.046,113.564,103.505,117.381Z" fill="url(#fill-0-render-2)"/></g></g><g id="shape-eb2c74b9-f443-8034-8005-5eb83ceb610e" data-testid="Ellipse"><g class="fills" id="fills-eb2c74b9-f443-8034-8005-5eb83ceb610e"><ellipse cx="156.61522611698365" cy="53.11909874018329" rx="6.837626405310402" ry="6.839898678505961" transform="matrix(1.000000, 0.000000, 0.000000, 1.000000, 0.000000, 0.000000)" style="fill: rgb(0, 0, 0); fill-opacity: 1;"/></g></g><g id="shape-eb2c74b9-f443-8034-8005-5eb82a589d7a" data-testid="Ellipse"><g class="fills" id="fills-eb2c74b9-f443-8034-8005-5eb82a589d7a"><ellipse cx="159.00839535884188" cy="49.357154467004875" rx="3.760694522919948" ry="3.7619442731784147" transform="matrix(1.000000, 0.000000, 0.000000, 1.000000, 0.000000, 0.000000)" style="fill: rgb(255, 255, 255); fill-opacity: 1;"/></g></g><g id="shape-eb2c74b9-f443-8034-8005-5eb61efc0c07" data-testid="path1"><g class="fills" id="fills-eb2c74b9-f443-8034-8005-5eb61efc0c07"><path d="M100.947,1.360C101.278,1.566,102.789,2.533,104.307,3.511C105.824,4.488,108.192,5.890,109.569,6.627C115.875,9.998,119.880,14.282,119.057,16.773C118.611,18.125,118.464,18.102,114.744,16.106C104.158,10.428,87.779,4.993,77.152,3.634C74.953,3.354,72.168,2.917,70.965,2.666C66.370,1.706,55.007,5.056,49.106,9.109L47.878,9.954L52.677,9.679C72.651,8.536,86.407,10.356,100.667,16.030C112.590,20.775,123.000,27.814,121.020,29.792C120.491,30.321,115.949,29.337,109.150,27.220C99.886,24.336,93.946,22.843,81.471,20.265C78.835,19.721,70.868,18.783,63.555,18.157C57.490,17.638,47.539,17.995,40.553,18.983C37.404,19.428,34.474,19.793,34.043,19.793C32.592,19.793,24.798,27.073,21.562,31.450C20.340,33.103,17.964,36.893,17.964,37.189C17.964,37.244,20.055,36.235,22.612,34.944C47.499,22.384,85.934,22.357,111.225,34.882C118.429,38.450,122.208,42.008,119.513,42.683C118.165,43.021,105.734,41.624,95.068,39.935C91.316,39.341,88.365,39.102,68.993,37.821C55.575,36.934,37.780,38.259,29.218,40.783C27.691,41.233,24.643,42.073,22.443,42.651C10.812,45.705,11.554,45.460,11.348,46.323C11.243,46.763,10.370,48.848,9.406,50.958C6.418,57.499,3.352,66.672,3.953,67.272C4.015,67.334,5.429,66.230,7.096,64.819C33.370,42.564,85.899,35.740,114.901,50.816C123.623,55.350,122.010,56.416,107.226,55.889C70.653,54.585,43.337,57.903,19.883,66.495C15.998,67.919,1.456,74.857,0.971,75.518C0.309,76.422,-0.246,90.674,0.187,95.667L0.431,98.504L1.211,97.133C9.311,82.887,33.406,68.299,58.142,62.667C76.827,58.413,98.210,58.587,112.185,63.109C120.507,65.802,120.100,67.221,110.671,68.384C107.808,68.738,102.875,69.386,99.707,69.825C96.540,70.265,93.300,70.703,92.508,70.800C73.039,73.169,43.870,80.743,28.182,87.503C15.701,92.880,1.324,102.372,1.329,105.233C1.334,107.665,2.359,112.701,3.705,116.895C4.503,119.383,5.256,122.035,5.378,122.787L5.599,124.156L5.860,123.164C7.808,115.742,21.983,101.638,35.881,93.292C60.448,78.539,98.840,70.599,117.623,76.385C123.439,78.177,121.555,79.560,109.145,82.605C107.298,83.059,103.698,83.999,101.147,84.694C98.595,85.389,93.413,86.759,89.630,87.738C80.907,89.994,70.757,93.349,60.195,97.466C58.876,97.981,56.429,98.928,54.757,99.571C51.795,100.711,48.498,102.147,42.258,105.011C31.360,110.014,19.570,117.903,12.264,125.080C8.609,128.669,8.337,129.020,8.511,129.909C8.735,131.047,11.985,136.976,14.120,140.138C14.950,141.369,15.961,143.022,16.365,143.814L17.100,145.252L17.490,144.124C20.379,135.793,31.424,123.140,44.965,112.648C65.021,97.110,103.116,85.365,122.016,88.894C127.120,89.846,124.817,91.912,114.039,96.051C111.964,96.848,107.746,98.490,104.666,99.699C101.587,100.909,96.620,102.854,93.628,104.024C71.651,112.612,48.798,125.655,34.281,137.897C26.641,144.339,22.123,149.063,22.123,150.610C22.123,151.290,26.371,155.221,29.962,157.864C31.722,159.159,33.698,160.726,34.355,161.345C35.012,161.965,35.598,162.408,35.660,162.332C35.720,162.256,36.313,160.899,36.977,159.316C42.930,145.128,58.397,127.921,73.506,118.679C87.082,110.375,107.261,102.907,120.862,101.152C126.664,100.404,126.760,100.561,123.924,106.127C115.282,123.086,108.326,132.569,94.862,145.749C87.131,153.317,86.194,154.255,80.328,160.291C77.244,163.463,73.231,167.994,71.409,170.360C69.586,172.724,67.732,175.053,67.288,175.535C66.307,176.599,66.191,176.497,69.314,177.316C83.340,180.993,103.670,178.396,118.264,171.063C140.699,159.788,153.277,140.059,156.319,111.370C157.014,104.823,159.733,96.386,162.501,92.191C163.313,90.961,164.346,89.386,164.795,88.693C170.526,79.858,179.103,76.433,196.327,76.100L207.205,75.890C213.391,74.781,212.572,65.371,210.388,64.153C209.270,63.530,209.653,63.373,200.326,63.751C186.622,64.308,177.358,61.097,169.764,46.642C154.011,16.683,114.666,4.428,108.303,2.866C100.799,1.024,100.210,0.904,100.947,1.360ZM158.976,49.709C161.675,51.289,162.126,54.105,159.861,55.235C155.955,57.184,152.670,55.714,152.658,52.011C152.649,49.303,156.121,48.038,158.976,49.709ZM103.505,117.381C92.745,122.825,75.144,134.766,62.892,144.932C51.857,154.090,41.309,165.055,42.172,166.474C42.818,167.537,50.860,171.300,55.876,172.886C57.108,173.276,58.369,173.822,58.678,174.098C59.387,174.734,59.270,174.908,60.668,171.144C63.824,162.646,65.059,160.089,69.173,153.550C77.545,140.245,89.749,128.952,102.587,122.635C106.913,120.506,110.249,117.337,110.290,115.319C110.322,113.784,111.046,113.564,103.505,117.381Z" stroke="none" fill-rule="evenodd" style="fill: rgb(36, 38, 43);"/></g></g></g></svg>