<svg xmlns="http://www.w3.org/2000/svg" xmlns:xlink="http://www.w3.org/1999/xlink" width="578.069" height="227.307" viewBox="0 0 578.069 227.307">
    <defs>
      <linearGradient id="linear-gradient" x1="0.5" x2="0.5" y2="1" gradientUnits="objectBoundingBox">
        <stop offset="0" stop-color="#36a4f4"/>
        <stop offset="1" stop-color="#275fe2"/>
      </linearGradient>
      <filter id="Union_1" x="0" y="0" width="205.333" height="227.307" filterUnits="userSpaceOnUse">
        <feOffset dy="4" input="SourceAlpha"/>
        <feGaussianBlur stdDeviation="5.5" result="blur"/>
        <feFlood flood-opacity="0.271"/>
        <feComposite operator="in" in2="blur"/>
        <feComposite in="SourceGraphic"/>
      </filter>
      <linearGradient id="linear-gradient-2" x2="0.515" y2="1.196" xlink:href="#linear-gradient"/>
      <filter id="Path_17" x="187.173" y="67.896" width="390.896" height="94.088" filterUnits="userSpaceOnUse">
        <feOffset dy="3" input="SourceAlpha"/>
        <feGaussianBlur stdDeviation="5.5" result="blur-2"/>
        <feFlood flood-opacity="0.271"/>
        <feComposite operator="in" in2="blur-2"/>
        <feComposite in="SourceGraphic"/>
      </filter>
    </defs>
    <g id="Logo_Horizontal" data-name="Logo Horizontal" transform="translate(16.5 12.5)">
      <g transform="matrix(1, 0, 0, 1, -16.5, -12.5)" filter="url(#Union_1)">
        <path id="Union_1-2" data-name="Union 1" d="M-2.086,97.79c-13.224-3.416-33.228-6.129-54.9-7.485-8.659-.548-46.739-.444-55.554.131A357.691,357.691,0,0,0-155.318,95.7c-2.973.521-7.172,1.512-10.224,2.373-2.634.756,5.634-5.008,11.085-7.772a110.1,110.1,0,0,1,17.631-6.573c1.33-.365,2.478-.7,2.53-.757a8.023,8.023,0,0,0-1.539-.939,72.472,72.472,0,0,1-20.187-16.979,71.971,71.971,0,0,1-15.6-35.549,78.234,78.234,0,0,1,0-15.44,52.283,52.283,0,0,1,7.772-21.179c4.3-6.729,11.345-12.468,18.283-14.919,8.267-2.92,16.092-2.425,22.978,1.409a22.881,22.881,0,0,1,11.084,23c-1.434,8.555-6.755,15.44-15.258,19.822a28.653,28.653,0,0,1-7.433,2.817,4.544,4.544,0,0,0-1.461.418c-.444.339-5.686.756-9.364.73l-3.39-.052,2.53-.209a41.146,41.146,0,0,0,8.555-1.642A33.374,33.374,0,0,0-126.5,17.954a24.536,24.536,0,0,0,7.59-11.346,25.352,25.352,0,0,0,.522-10.667,15.208,15.208,0,0,0-9.468-10.772,13.7,13.7,0,0,0-4.929-1.1c-3.6-.339-7.459.625-11.972,2.973a17.9,17.9,0,0,0-5.086,3.938,34.459,34.459,0,0,0-8.842,14.5,43.063,43.063,0,0,0-2.191,14.58,55.026,55.026,0,0,0,3.234,18.752A89.173,89.173,0,0,0-151.9,50.843c5.216,8.608,13.823,16.51,24.152,22.144,4.981,2.713,12.832,5.634,15.179,5.634.522,0,.574-.078.418-.731-1.069-4.146-1.487-13.614-.808-18.961a64.148,64.148,0,0,1,7.146-23.135c3.625-6.6,7.537-11.294,14.4-17.188,5.373-4.616,6.6-6.129,7.8-9.806,1.591-4.721,1.591-9.52.052-16.015A61.148,61.148,0,0,0-90.113-23c-.574-.913-1.748-3-2.608-4.668-1.226-2.3-1.487-3-1.147-3a20.289,20.289,0,0,1,2.687.653c1.226.365,3.077.913,4.069,1.2a47.96,47.96,0,0,1,9.363,4.355A47.819,47.819,0,0,1-65.8-13.866a42.007,42.007,0,0,1,5.9,8.763,55.961,55.961,0,0,1,5.633,15.91,64.172,64.172,0,0,1,1.382,16.927c-.183,9.885-1.356,17.162-4.851,30.02A142.85,142.85,0,0,1-64.474,75.96c-.991,2.217-1.017,2.4-.391,2.4.94,0,11.972,1.043,14.137,1.33a162.853,162.853,0,0,1,24.517,5.034,110.456,110.456,0,0,1,10.876,3.938,58.491,58.491,0,0,1,10.8,6.025C-.495,97.44.812,98.307.183,98.307A15.742,15.742,0,0,1-2.086,97.79ZM-71.437,77.942l4.459.209.444-2.165a41.893,41.893,0,0,0,.7-11.946c-.678-6.964-2.425-11.084-6.416-15.023A18.221,18.221,0,0,0-80.8,44.453a25,25,0,0,0-10.224.026,18.281,18.281,0,0,0-8.5,4.9,13.773,13.773,0,0,0-3.573,4.981,31.218,31.218,0,0,0-2.034,5.738c-.7,2.869-.731,3.287-.757,9.259,0,3.443.1,6.808.209,7.511l.209,1.226,5.138-.183c3.29-.137,8.768-.2,14.2-.2C-80.2,77.713-74.325,77.792-71.437,77.942ZM-86.07-32.88a21.254,21.254,0,0,1-7.2-5.477,46.759,46.759,0,0,1-10.407-18.388,41.623,41.623,0,0,1,4.513-34.48c1.7-2.687,3.286-4.069,5.4-4.721a5.405,5.405,0,0,1,3.181.757c1.356.678,2.556,2.06,3.86,4.407,2.817,5.086,6.286,9.1,9.625,11.085a19.217,19.217,0,0,0,10.85,2.791c5.112-.313,7.642-1.487,16.04-7.486a8.422,8.422,0,0,1,4.877-1.825c3.6,0,5.243,2.921,5.477,9.676a49.16,49.16,0,0,1-5.4,23.761c-5.946,11.972-17.6,20.291-30.307,21.6a27.985,27.985,0,0,1-2.867.165A16.5,16.5,0,0,1-86.07-32.88Zm-4.513-43.114c-5.685.339-7.485,1.774-8.189,6.573-.835,5.79,1.851,16.562,5.79,23.187a37.778,37.778,0,0,0,5.973,7.381,11.937,11.937,0,0,0,7.772,2.974c4.694,0,10.928-2.634,16.771-7.094.364-.287,1.877-1.7,3.364-3.156,5.269-5.164,7.8-10.328,6.808-13.9-.418-1.435-2.425-3.626-4.7-5.112-7.068-4.591-20.526-9.364-29.681-10.511-1.643-.193-3.287-.342-3.81-.342C-90.521-76-90.556-76-90.582-75.993Z" transform="translate(188.5 108.5)" fill="url(#linear-gradient)"/>
      </g>
      <g transform="matrix(1, 0, 0, 1, -16.5, -12.5)" filter="url(#Path_17)">
        <path id="Path_17-2" data-name="Path 17" d="M-169.071-35.358a3.808,3.808,0,0,0-3.818-3.818,3.791,3.791,0,0,0-3.735,3.818V-3.4A3.791,3.791,0,0,0-172.889.415,3.808,3.808,0,0,0-169.071-3.4V-20.916c0-8.217,5.478-11.288,10.956-11.288,5.312,0,8.549,3.818,8.549,10.292V-3.4A3.791,3.791,0,0,0-145.831.415,3.808,3.808,0,0,0-142.013-3.4V-22.41c0-10.873-5.312-17.181-14.94-17.181-4.233,0-9.794,1.992-12.118,6.64Zm46.812,12.948c.913-6.474,5.893-10.375,12.284-10.375,6.225,0,10.873,3.9,11.786,10.375Zm31.54,2.905c0-12.284-8.217-20.086-19.256-20.086s-19.837,7.8-19.837,20.086S-121.014.83-109.975.83c6.308,0,12.118-2.324,15.853-7.138a3.363,3.363,0,0,0-.664-4.731c-1.494-1.079-3.652-.581-5.063,1-2.656,2.905-5.229,4.067-9.877,4.067-6.557,0-11.62-4.067-12.533-10.541h28.552A2.975,2.975,0,0,0-90.719-19.505Zm16.766.249A12.859,12.859,0,0,1-60.839-32.287a12.607,12.607,0,0,1,7.387,2.324A4.114,4.114,0,0,0-48.14-30.3a3.733,3.733,0,0,0-.415-5.4,21.414,21.414,0,0,0-12.284-3.9c-10.956,0-20.418,7.968-20.5,20.086C-81.34-7.221-71.878.83-60.839.83a20.638,20.638,0,0,0,12.284-3.9,3.733,3.733,0,0,0,.415-5.4c-1.411-1.577-3.486-1.494-5.312-.332a12.607,12.607,0,0,1-7.387,2.324A12.9,12.9,0,0,1-73.953-19.256ZM-17.679.83C-6.64.83,2.656-7.221,2.656-19.505s-9.3-20.086-20.335-20.086-20.252,7.8-20.252,20.086S-28.718.83-17.679.83Zm0-7.3c-6.972,0-12.782-5.146-12.782-13.031,0-7.8,5.81-12.7,12.782-12.7S-4.9-27.307-4.9-19.505C-4.9-11.62-10.707-6.474-17.679-6.474ZM46.148-32.951c-2.573-4.4-7.968-6.64-13.612-6.64-10.707,0-19.588,7.8-19.588,20.169C12.948-7.138,21.995.83,32.619.83c5.4,0,10.956-2.407,13.529-6.806V-3.4A3.808,3.808,0,0,0,49.966.415,3.791,3.791,0,0,0,53.7-3.4V-56.44a3.791,3.791,0,0,0-3.735-3.818,3.808,3.808,0,0,0-3.818,3.818Zm-.083,13.446c0,8.217-5.976,12.948-12.865,12.948-6.972,0-12.533-5.312-12.533-12.948,0-7.719,5.561-12.7,12.533-12.7C39.425-32.2,46.065-27.805,46.065-19.505ZM73.953-22.41c.913-6.474,5.893-10.375,12.284-10.375,6.225,0,10.873,3.9,11.786,10.375Zm31.54,2.905c0-12.284-8.217-20.086-19.256-20.086S66.4-31.789,66.4-19.505,75.2.83,86.237.83c6.308,0,12.118-2.324,15.853-7.138a3.363,3.363,0,0,0-.664-4.731c-1.494-1.079-3.652-.581-5.063,1-2.656,2.905-5.229,4.067-9.877,4.067-6.557,0-11.62-4.067-12.533-10.541H102.5A2.975,2.975,0,0,0,105.493-19.505Zm20.418-34.2a3.845,3.845,0,0,0-3.9-3.9,3.827,3.827,0,0,0-3.818,3.9V-3.486a3.827,3.827,0,0,0,3.818,3.9,3.845,3.845,0,0,0,3.9-3.9Zm29.714,3.735v46.48a3.827,3.827,0,0,0,3.818,3.9,3.845,3.845,0,0,0,3.9-3.9v-46.48H177.62a3.631,3.631,0,0,0,3.652-3.652,3.614,3.614,0,0,0-3.652-3.569H141.266a3.614,3.614,0,0,0-3.652,3.569,3.631,3.631,0,0,0,3.652,3.652Z" transform="translate(380.3 141.65)" fill="url(#linear-gradient-2)"/>
      </g>
    </g>
  </svg>